<?xml version="1.0" encoding="UTF-8"?>
<svg version="1.1" xmlns="http://www.w3.org/2000/svg" width="200" height="192" viewBox="0 0 200 200">
<path d="M0 0 C3.49024457 1.43287705 5.02243274 3.08869156 7.16015625 6.16015625 C13.04643914 13.78607233 13.04643914 13.78607233 21 19 C29.53919865 19.27427309 37.72617171 16.02025037 45.56420898 12.91235352 C48 12 48 12 50 12 C50.99 15.63 51.98 19.26 53 23 C53.66 23 54.32 23 55 23 C55 23.99 55 24.98 55 26 C59.95 26 64.9 26 70 26 C71.59412284 29.18824568 71.10174735 32.62896662 71.0625 36.125 C71.05798828 36.87910156 71.05347656 37.63320313 71.04882812 38.41015625 C71.03703499 40.27347127 71.01909942 42.13674555 71 44 C72.19625 44.12375 73.3925 44.2475 74.625 44.375 C78.27596813 44.82325054 81.54524899 45.70446837 85 47 C83.69104124 54.31983515 81.83411892 61.43458116 79.8046875 68.58203125 C79.06684506 71.71607073 78.61801509 73.83102911 79 77 C80.73456026 79.39096954 80.73456026 79.39096954 83.15625 81.57421875 C84.01347656 82.40630859 84.87070313 83.23839844 85.75390625 84.09570312 C86.66011719 84.95099609 87.56632813 85.80628906 88.5 86.6875 C90.28538615 88.3954263 92.06686294 90.10745193 93.84375 91.82421875 C94.63974609 92.57791748 95.43574219 93.33161621 96.25585938 94.1081543 C98 96 98 96 98 98 C96.63671875 99.33984375 96.63671875 99.33984375 94.6875 100.9375 C91.05070702 104.0706364 87.44216025 107.21984559 83.9375 110.5 C82.97714844 111.3765625 82.01679688 112.253125 81.02734375 113.15625 C78.68143744 115.85691491 78.68143744 115.85691491 79.03125 119.234375 C79.3509375 120.47703125 79.670625 121.7196875 80 123 C80.18828369 123.75539063 80.37656738 124.51078125 80.57055664 125.2890625 C81.20429824 127.7851521 81.8776034 130.26748965 82.5625 132.75 C83.02557254 134.4313488 83.48535526 136.1136081 83.94140625 137.796875 C84.14451416 138.53260742 84.34762207 139.26833984 84.55688477 140.02636719 C85 142 85 142 85 145 C83.85546875 146.67578125 83.85546875 146.67578125 82 148 C79.30078125 148.29296875 79.30078125 148.29296875 76.3125 148.1875 C75.31863281 148.16042969 74.32476562 148.13335937 73.30078125 148.10546875 C72.54152344 148.07066406 71.78226563 148.03585938 71 148 C71.01160156 149.13179687 71.02320313 150.26359375 71.03515625 151.4296875 C71.04453454 152.91145669 71.0536347 154.39322765 71.0625 155.875 C71.07087891 156.62136719 71.07925781 157.36773437 71.08789062 158.13671875 C71.11328125 163.7734375 71.11328125 163.7734375 70 166 C65.05 166 60.1 166 55 166 C54.67 166.99 54.34 167.98 54 169 C53.690625 169.5775 53.38125 170.155 53.0625 170.75 C51.65215516 173.73661259 50.8570384 176.81671451 50 180 C48.02 180.33 46.04 180.66 44 181 C44 180.34 44 179.68 44 179 C42.39125 178.7834375 42.39125 178.7834375 40.75 178.5625 C38.07138022 178.16070703 35.59610051 177.71616566 33 177 C30.46468045 176.30854921 28.6705913 176 26 176 C26 175.01 26 174.02 26 173 C19.3090228 174.26123851 15.63657269 178.91461224 11.125 183.625 C10.34125 184.42679688 9.5575 185.22859375 8.75 186.0546875 C6.8239578 188.02770634 4.90789656 190.00945547 3 192 C-0.25533554 190.58385486 -2.29698093 188.88815736 -4.71484375 186.3046875 C-5.40126953 185.58925781 -6.08769531 184.87382812 -6.79492188 184.13671875 C-8.22537143 182.62672733 -9.64985539 181.1110625 -11.06835938 179.58984375 C-11.75607422 178.87699219 -12.44378906 178.16414062 -13.15234375 177.4296875 C-13.77101318 176.77210449 -14.38968262 176.11452148 -15.02709961 175.43701172 C-17.50035549 173.63555347 -19.00808918 173.71616448 -22 174 C-22 174.66 -22 175.32 -22 176 C-24.31 176 -26.62 176 -29 176 C-29.33 176.66 -29.66 177.32 -30 178 C-30.969375 177.95875 -31.93875 177.9175 -32.9375 177.875 C-37.44889724 177.85651067 -41.64837652 178.89482578 -46 180 C-46.67184618 177.89748139 -47.33730968 175.79292237 -48 173.6875 C-48.37125 172.51574219 -48.7425 171.34398437 -49.125 170.13671875 C-50 167 -50 167 -50 164 C-55.61 164 -61.22 164 -67 164 C-67 158.72 -67 153.44 -67 148 C-68.39156484 149.16277032 -68.39156484 149.16277032 -68.09765625 152.37890625 C-68.09098369 153.77347077 -68.07902532 155.16801743 -68.0625 156.5625 C-68.05798828 157.27341797 -68.05347656 157.98433594 -68.04882812 158.71679688 C-68.03700864 160.47790013 -68.01907263 162.23896036 -68 164 C-68.33 164 -68.66 164 -69 164 C-69 159.38 -69 154.76 -69 150 C-70.98 149.67 -72.96 149.34 -75 149 C-75 148.34 -75 147.68 -75 147 C-76.98 146.34 -78.96 145.68 -81 145 C-80.31013209 137.95523125 -78.58069382 131.48165958 -76.55273438 124.71484375 C-76.32521484 123.90660156 -76.09769531 123.09835938 -75.86328125 122.265625 C-75.64969971 121.54149414 -75.43611816 120.81736328 -75.21606445 120.07128906 C-74.9331144 117.35880515 -75.51017681 116.26940785 -77 114 C-78.26677084 112.62947982 -79.58956975 111.30968206 -80.94921875 110.03125 C-82.09680664 108.92716797 -82.09680664 108.92716797 -83.26757812 107.80078125 C-84.88702489 106.26106512 -86.51208806 104.72723569 -88.14257812 103.19921875 C-89.28436523 102.09513672 -89.28436523 102.09513672 -90.44921875 100.96875 C-91.15393311 100.30294922 -91.85864746 99.63714844 -92.5847168 98.95117188 C-94 97 -94 97 -93.98730469 94.96972656 C-92.68385916 92.36928182 -91.09214518 91.23992362 -88.75390625 89.515625 C-80.81765228 83.19085884 -80.81765228 83.19085884 -75 75 C-74.3730049 67.4406353 -77.27227598 60.24525846 -80.16357422 53.37158203 C-81 51 -81 51 -81 47 C-78.73101581 44.73101581 -78.09944902 44.48938669 -75 44 C-72.36 44 -69.72 44 -67 44 C-67 38.72 -67 33.44 -67 28 C-61.39 28 -55.78 28 -50 28 C-49.71125 26.47375 -49.4225 24.9475 -49.125 23.375 C-48.38258569 19.45081006 -47.31609006 15.77131688 -46 12 C-43.31199023 12.62286841 -40.6246008 13.24823207 -37.9375 13.875 C-37.18533203 14.04902344 -36.43316406 14.22304687 -35.65820312 14.40234375 C-32.13287833 15.22644565 -28.70764967 16.09328384 -25.25390625 17.1953125 C-21.80294967 18.04873033 -20.34483924 18.0308256 -17 17 C-14.79505475 15.34219161 -14.79505475 15.34219161 -12.79296875 13.18359375 C-12.04208984 12.41982422 -11.29121094 11.65605469 -10.51757812 10.86914062 C-9.74865234 10.06669922 -8.97972656 9.26425781 -8.1875 8.4375 C-7.39923828 7.63119141 -6.61097656 6.82488281 -5.79882812 5.99414062 C-3.85657084 4.00479831 -1.92426339 2.00672729 0 0 Z " fill="#0DE18A" transform="translate(94,0)"/>
<path d="M0 0 C3.81282636 1.42702273 6.78615948 3.65477745 10.046875 6.0625 C11.54999411 7.14822599 13.0539484 8.23279638 14.55859375 9.31640625 C15.37118652 9.90437988 16.1837793 10.49235352 17.02099609 11.09814453 C21.92922376 14.61951988 26.89723586 18.05523202 31.859375 21.5 C32.83890137 22.18199463 33.81842773 22.86398926 34.82763672 23.56665039 C40.54736126 27.54613269 40.54736126 27.54613269 46.34765625 31.40625 C47.11464844 31.9321875 47.88164062 32.458125 48.671875 33 C48.671875 33.33 48.671875 33.66 48.671875 34 C46.031875 34 43.391875 34 40.671875 34 C40.671875 47.2 40.671875 60.4 40.671875 74 C35.061875 74 29.451875 74 23.671875 74 C23.775 72.06125 23.878125 70.1225 23.984375 68.125 C23.96770609 60.46563624 22.19143847 54.77881703 16.921875 49.12109375 C10.23641268 43.1416393 4.4309862 42.37917238 -4.33203125 42.6328125 C-10.68824044 43.05151163 -14.64829808 45.3608646 -19.12890625 49.7734375 C-24.64055749 56.63998153 -24.61583342 64.52373017 -25.328125 73 C-30.608125 73 -35.888125 73 -41.328125 73 C-41.328125 60.13 -41.328125 47.26 -41.328125 34 C-43.968125 34 -46.608125 34 -49.328125 34 C-47.03444 31.52987769 -45.31453321 29.99354733 -42.234375 28.53125 C-38.9427339 25.66433678 -38.86868602 25.14812246 -38.5234375 21.015625 C-38.47043648 19.094338 -38.44800646 17.17201109 -38.453125 15.25 C-38.4325 14.26644531 -38.411875 13.28289062 -38.390625 12.26953125 C-38.34358015 9.84672131 -38.33237634 7.42326291 -38.328125 5 C-33.708125 5 -29.088125 5 -24.328125 5 C-23.998125 8.3 -23.668125 11.6 -23.328125 15 C-22.65007812 14.50371094 -21.97203125 14.00742188 -21.2734375 13.49609375 C-19.32688703 12.07527367 -17.37609065 10.66025871 -15.421875 9.25 C-13.44719956 7.81387241 -11.48706194 6.35739002 -9.546875 4.875 C-8.6909375 4.235625 -7.835 3.59625 -6.953125 2.9375 C-6.18226562 2.34839844 -5.41140625 1.75929687 -4.6171875 1.15234375 C-2.328125 0 -2.328125 0 0 0 Z " fill="#F5F7F6" transform="translate(96.328125,57)"/>
<path d="M0 0 C1.35019981 0.00424484 1.35019981 0.00424484 2.72767639 0.00857544 C5.58030945 0.01969972 8.43261936 0.04478967 11.28515625 0.0703125 C13.22851107 0.08035233 15.17187084 0.08947642 17.11523438 0.09765625 C21.85949801 0.11961362 26.60352249 0.15408949 31.34765625 0.1953125 C31.34765625 0.8553125 31.34765625 1.5153125 31.34765625 2.1953125 C32.33765625 1.8653125 33.32765625 1.5353125 34.34765625 1.1953125 C36.57992525 1.28148976 38.81004111 1.43453491 41.03515625 1.6328125 C42.21464844 1.73464844 43.39414063 1.83648437 44.609375 1.94140625 C45.51300781 2.02519531 46.41664063 2.10898438 47.34765625 2.1953125 C47.34765625 2.5253125 47.34765625 2.8553125 47.34765625 3.1953125 C42.39765625 3.1953125 37.44765625 3.1953125 32.34765625 3.1953125 C32.01765625 4.1853125 31.68765625 5.1753125 31.34765625 6.1953125 C31.03828125 6.7728125 30.72890625 7.3503125 30.41015625 7.9453125 C28.99981141 10.93192509 28.20469465 14.01202701 27.34765625 17.1953125 C25.36765625 17.5253125 23.38765625 17.8553125 21.34765625 18.1953125 C21.34765625 17.5353125 21.34765625 16.8753125 21.34765625 16.1953125 C20.27515625 16.0509375 19.20265625 15.9065625 18.09765625 15.7578125 C15.41903647 15.35601953 12.94375676 14.91147816 10.34765625 14.1953125 C7.8123367 13.50386171 6.01824755 13.1953125 3.34765625 13.1953125 C3.34765625 12.2053125 3.34765625 11.2153125 3.34765625 10.1953125 C-3.34332095 11.45655101 -7.01577106 16.10992474 -11.52734375 20.8203125 C-12.31109375 21.62210938 -13.09484375 22.42390625 -13.90234375 23.25 C-15.82838595 25.22301884 -17.74444719 27.20476797 -19.65234375 29.1953125 C-23.01569969 27.73785826 -25.1976838 25.88413396 -27.76171875 23.28125 C-28.51582031 22.52070313 -29.26992187 21.76015625 -30.046875 20.9765625 C-30.82417969 20.1825 -31.60148437 19.3884375 -32.40234375 18.5703125 C-33.19511719 17.76851562 -33.98789063 16.96671875 -34.8046875 16.140625 C-36.75848868 14.16328404 -38.70746478 12.18142341 -40.65234375 10.1953125 C-39.65234375 8.1953125 -39.65234375 8.1953125 -37.53857422 7.44921875 C-36.62479004 7.22105469 -35.71100586 6.99289063 -34.76953125 6.7578125 C-33.26519531 6.37496094 -33.26519531 6.37496094 -31.73046875 5.984375 C-30.6734375 5.72398437 -29.61640625 5.46359375 -28.52734375 5.1953125 C-26.4620749 4.67513257 -24.39696677 4.15431407 -22.33203125 3.6328125 C-21.41147949 3.40464844 -20.49092773 3.17648438 -19.54248047 2.94140625 C-17.47464145 2.40759006 -15.42784074 1.78950454 -13.40063477 1.11767578 C-8.83587822 -0.00559982 -4.67793612 -0.05610382 0 0 Z " fill="#EE3083" transform="translate(116.65234375,162.8046875)"/>
<path d="M0 0 C0.60689418 2.08254042 1.21033075 4.16608845 1.8125 6.25 C2.14894531 7.41015625 2.48539063 8.5703125 2.83203125 9.765625 C3.22225532 11.17683446 3.61147724 12.5883212 4 14 C4.25080322 14.86729736 4.50160645 15.73459473 4.76000977 16.62817383 C6.71578914 23.78254096 7.40887982 30.27573107 7.29296875 37.671875 C7.28872391 38.72030579 7.28447906 39.76873657 7.28010559 40.84893799 C7.26350905 44.14956974 7.22589409 47.4495574 7.1875 50.75 C7.17242853 53.00780359 7.15874448 55.26561689 7.14648438 57.5234375 C7.11366833 63.01583932 7.06366386 68.50787363 7 74 C6.34 74 5.68 74 5 74 C5 78.95 5 83.9 5 89 C4.67 89 4.34 89 4 89 C4 84.38 4 79.76 4 75 C2.02 74.67 0.04 74.34 -2 74 C-2 73.34 -2 72.68 -2 72 C-3.98 71.34 -5.96 70.68 -8 70 C-7.31013209 62.95523125 -5.58069382 56.48165958 -3.55273438 49.71484375 C-3.32521484 48.90660156 -3.09769531 48.09835938 -2.86328125 47.265625 C-2.64969971 46.54149414 -2.43611816 45.81736328 -2.21606445 45.07128906 C-1.9331144 42.35880515 -2.51017681 41.26940785 -4 39 C-5.26677084 37.62947982 -6.58956975 36.30968206 -7.94921875 35.03125 C-9.09680664 33.92716797 -9.09680664 33.92716797 -10.26757812 32.80078125 C-11.88702489 31.26106512 -13.51208806 29.72723569 -15.14257812 28.19921875 C-15.90376953 27.46316406 -16.66496094 26.72710937 -17.44921875 25.96875 C-18.15393311 25.30294922 -18.85864746 24.63714844 -19.5847168 23.95117188 C-21 22 -21 22 -20.96972656 20.02246094 C-19.70997383 17.39512165 -18.10045181 15.72880721 -16.03515625 13.671875 C-15.23529297 12.87265625 -14.43542969 12.0734375 -13.61132812 11.25 C-12.77021484 10.425 -11.92910156 9.6 -11.0625 8.75 C-10.22525391 7.90953125 -9.38800781 7.0690625 -8.52539062 6.203125 C-2.26688058 0 -2.26688058 0 0 0 Z " fill="#BC5CCE" transform="translate(21,75)"/>
<path d="M0 0 C3.36335594 1.45745424 5.54534005 3.31117854 8.109375 5.9140625 C8.86347656 6.67460938 9.61757812 7.43515625 10.39453125 8.21875 C11.17183594 9.0128125 11.94914062 9.806875 12.75 10.625 C13.93916016 11.82769531 13.93916016 11.82769531 15.15234375 13.0546875 C17.10614493 15.03202846 19.05512103 17.01388909 21 19 C19.57400508 21.85198983 17.9914324 21.92158011 15 22.9453125 C-6.70040198 29.97621084 -27.39134914 29.86885658 -50 29 C-48.96484375 20.25 -48.96484375 20.25 -47.4375 16 C-47.16808594 15.236875 -46.89867187 14.47375 -46.62109375 13.6875 C-46.41613281 13.130625 -46.21117187 12.57375 -46 12 C-43.31199023 12.62286841 -40.6246008 13.24823207 -37.9375 13.875 C-37.18533203 14.04902344 -36.43316406 14.22304687 -35.65820312 14.40234375 C-32.13287833 15.22644565 -28.70764967 16.09328384 -25.25390625 17.1953125 C-21.80294967 18.04873033 -20.34483924 18.0308256 -17 17 C-14.79505475 15.34219161 -14.79505475 15.34219161 -12.79296875 13.18359375 C-11.66665039 12.03793945 -11.66665039 12.03793945 -10.51757812 10.86914062 C-9.74865234 10.06669922 -8.97972656 9.26425781 -8.1875 8.4375 C-7.39923828 7.63119141 -6.61097656 6.82488281 -5.79882812 5.99414062 C-3.85657084 4.00479831 -1.92426339 2.00672729 0 0 Z " fill="#BB5ED0" transform="translate(94,0)"/>
<path d="M0 0 C4.95 1.32 9.9 2.64 15 4 C13.64897583 11.3180476 11.83590474 18.42829169 9.8046875 25.58203125 C9.06684506 28.71607073 8.61801509 30.83102911 9 34 C10.73456026 36.39096954 10.73456026 36.39096954 13.15625 38.57421875 C14.01347656 39.40630859 14.87070313 40.23839844 15.75390625 41.09570312 C17.11322266 42.37864258 17.11322266 42.37864258 18.5 43.6875 C20.28538615 45.3954263 22.06686294 47.10745193 23.84375 48.82421875 C25.03774414 49.95476685 25.03774414 49.95476685 26.25585938 51.1081543 C28 53 28 53 28 55 C26.671875 56.3046875 26.671875 56.3046875 24.75 57.875 C18.82166218 62.89702718 13.44825893 68.47001718 8 74 C-0.12998305 65.87001695 -0.53647039 47.66590677 -0.5859375 36.9140625 C-0.5676914 32.48255018 -0.47757873 28.05523967 -0.375 23.625 C-0.34479942 21.31644186 -0.31744182 19.00784472 -0.29296875 16.69921875 C-0.2279201 11.13181982 -0.12497878 5.56636262 0 0 Z " fill="#BB5ED0" transform="translate(164,43)"/>
<path d="M0 0 C0.99 3.63 1.98 7.26 3 11 C3.66 11 4.32 11 5 11 C5 11.99 5 12.98 5 14 C9.95 14 14.9 14 20 14 C20 14.33 20 14.66 20 15 C14.72 15 9.44 15 4 15 C4 15.66 4 16.32 4 17 C-16.79 17 -37.58 17 -59 17 C-55.83985367 15.41992683 -53.33295182 14.43263911 -49.984375 13.51953125 C-48.99139404 13.2457666 -47.99841309 12.97200195 -46.9753418 12.68994141 C-45.910979 12.40038574 -44.84661621 12.11083008 -43.75 11.8125 C-41.5009808 11.19257063 -39.25229143 10.57144366 -37.00390625 9.94921875 C-35.27358154 9.4704126 -35.27358154 9.4704126 -33.50830078 8.98193359 C-26.860981 7.12142419 -20.24015932 5.17028212 -13.61816406 3.22192383 C-12.67553711 2.94501709 -11.73291016 2.66811035 -10.76171875 2.3828125 C-9.93631592 2.13934082 -9.11091309 1.89586914 -8.26049805 1.64501953 C-2.49545799 0 -2.49545799 0 0 0 Z " fill="#00CDF3" transform="translate(144,12)"/>
<path d="M0 0 C20.79 0 41.58 0 63 0 C60.03309618 1.97793588 58.15445579 2.59527874 54.73828125 3.40234375 C53.70123047 3.65306641 52.66417969 3.90378906 51.59570312 4.16210938 C50.51224609 4.41798828 49.42878906 4.67386719 48.3125 4.9375 C41.34756092 6.58697982 34.64116764 8.30980513 28 11 C28 11.66 28 12.32 28 13 C25.69 13 23.38 13 21 13 C20.67 13.66 20.34 14.32 20 15 C19.030625 14.95875 18.06125 14.9175 17.0625 14.875 C12.55110276 14.85651067 8.35162348 15.89482578 4 17 C3.32635339 14.91891315 2.66133202 12.8350329 2 10.75 C1.62875 9.58984375 1.2575 8.4296875 0.875 7.234375 C0 4 0 4 0 0 Z " fill="#00CAF5" transform="translate(44,163)"/>
<path d="M0 0 C0.66 0.66 1.32 1.32 2 2 C-4.27 8.27 -10.54 14.54 -17 21 C-20.6095499 19.19522505 -22.35628071 17.88074534 -25.109375 15.0859375 C-25.86347656 14.32539063 -26.61757812 13.56484375 -27.39453125 12.78125 C-28.17183594 11.9871875 -28.94914062 11.193125 -29.75 10.375 C-30.93916016 9.17230469 -30.93916016 9.17230469 -32.15234375 7.9453125 C-34.10614493 5.96797154 -36.05512103 3.98611091 -38 2 C-37 0 -37 0 -33.37890625 -1.46484375 C-20.9809578 -5.45602694 -12.01277734 -5.07868264 0 0 Z " fill="#BC5CD2" transform="translate(114,171)"/>
<path d="M0 0 C5.61 0 11.22 0 17 0 C14.29970713 12.55730599 11.22900136 24.93345578 7.8125 37.3125 C7.13491779 39.77891857 6.45859399 42.24567055 5.78410339 44.7129364 C5.36985044 46.22716609 4.9537205 47.74088405 4.53535461 49.25398254 C3.55753091 52.81747287 2.66424264 56.36416886 2 60 C1.67 60 1.34 60 1 60 C0.67 40.2 0.34 20.4 0 0 Z " fill="#00EF89" transform="translate(27,28)"/>
<path d="M0 0 C0.33 0 0.66 0 1 0 C1.28962213 5.70655736 1.57421739 11.41333723 1.85449219 17.12036133 C1.95017248 19.05499762 2.04714053 20.98957073 2.14550781 22.92407227 C2.7229331 34.29876125 3.11615143 45.60990043 3 57 C-2.61 57 -8.22 57 -14 57 C-12.36820548 44.97842517 -9.05011572 33.43845193 -5.875 21.75 C-5.30546669 19.63685961 -4.7364518 17.52357943 -4.16796875 15.41015625 C-2.78462306 10.27180931 -1.39487135 5.13522941 0 0 Z " fill="#00EF8A" transform="translate(162,107)"/>
<path d="M0 0 C11.53373046 2.51054312 22.71574292 5.67454428 33.93554688 9.33349609 C37.93640195 10.62516288 41.96795364 11.81021583 46 13 C45.67 13.66 45.34 14.32 45 15 C38.9957187 16.9349204 33.52104909 17.2709767 27.25 17.1953125 C26.35128174 17.1924826 25.45256348 17.18965271 24.52661133 17.18673706 C21.68426635 17.17563125 18.84224814 17.15054505 16 17.125 C14.0612025 17.11495777 12.12240001 17.10583411 10.18359375 17.09765625 C5.45560518 17.07572345 0.7278578 17.04126084 -4 17 C-2.96484375 8.25 -2.96484375 8.25 -1.4375 4 C-1.16808594 3.236875 -0.89867187 2.47375 -0.62109375 1.6875 C-0.41613281 1.130625 -0.21117187 0.57375 0 0 Z " fill="#FD227D" transform="translate(48,12)"/>
<path d="M0 0 C0.66 0.33 1.32 0.66 2 1 C2.96813254 3.90439761 3.12144834 5.7281824 3.11352539 8.74682617 C3.11344986 9.70759567 3.11337433 10.66836517 3.11329651 11.6582489 C3.10813522 12.69270645 3.10297394 13.727164 3.09765625 14.79296875 C3.0962413 15.85413406 3.09482635 16.91529938 3.09336853 18.00862122 C3.08776606 21.40160935 3.07521314 24.79453177 3.0625 28.1875 C3.05748532 30.48632717 3.05292236 32.78515538 3.04882812 35.08398438 C3.03779583 40.72267872 3.0210553 46.36133466 3 52 C2.34 52 1.68 52 1 52 C1 56.95 1 61.9 1 67 C0.67 67 0.34 67 0 67 C0 62.38 0 57.76 0 53 C-1.98 52.67 -3.96 52.34 -6 52 C-6 51.34 -6 50.68 -6 50 C-7.98 49.34 -9.96 48.68 -12 48 C-11.39540033 41.71362034 -9.99551624 35.97886587 -8.1875 29.9375 C-7.64478345 28.08364036 -7.1031238 26.22947101 -6.5625 24.375 C-6.16417969 23.01375 -6.16417969 23.01375 -5.7578125 21.625 C-3.6892373 14.45962612 -1.78793181 7.24023872 0 0 Z " fill="#EF3281" transform="translate(25,97)"/>
<path d="M0 0 C0 19.14 0 38.28 0 58 C-0.33 58 -0.66 58 -1 58 C-1.25394531 56.96101563 -1.50789063 55.92203125 -1.76953125 54.8515625 C-4.01459953 45.72775404 -6.37547718 36.70224368 -9.4375 27.8125 C-10.84105726 23.64662259 -12.03442577 19.42834702 -13.1875 15.1875 C-13.53167969 13.92292969 -13.87585938 12.65835938 -14.23046875 11.35546875 C-15 8 -15 8 -15 4 C-11.37690687 0.37690687 -5.00052621 0 0 0 Z " fill="#00C9F6" transform="translate(28,43)"/>
<path d="M0 0 C1.73387813 2.6008172 2.45230709 4.10163604 3.26171875 7.0078125 C3.49036621 7.81814941 3.71901367 8.62848633 3.95458984 9.46337891 C4.1964502 10.34171387 4.43831055 11.22004883 4.6875 12.125 C5.06962646 13.49084229 5.06962646 13.49084229 5.45947266 14.88427734 C6.01223673 16.86110028 6.56292926 18.83850334 7.11181641 20.81640625 C8.04532 24.16244442 8.99569891 27.50336382 9.94921875 30.84375 C10.59132759 33.10411504 11.23325801 35.36453078 11.875 37.625 C12.18526123 38.7092627 12.49552246 39.79352539 12.81518555 40.91064453 C13.10047119 41.92239746 13.38575684 42.93415039 13.6796875 43.9765625 C13.93476074 44.87455566 14.18983398 45.77254883 14.45263672 46.69775391 C15 49 15 49 15 52 C13.9375 53.6875 13.9375 53.6875 12 55 C8.625 55.125 8.625 55.125 5 55 C2.525 55.495 2.525 55.495 0 56 C0 37.52 0 19.04 0 0 Z " fill="#00CCF9" transform="translate(164,93)"/>
<path d="M0 0 C4.95 1.32 9.9 2.64 15 4 C13.80588221 10.62192595 12.25643348 17.11633051 10.5625 23.625 C10.35729736 24.42397705 10.15209473 25.2229541 9.94067383 26.04614258 C8.75545334 30.54182249 7.36755518 34.86715355 5.68481445 39.20068359 C4.77164093 41.60000225 4.03110007 44.03622832 3.3125 46.5 C3.06113281 47.3559375 2.80976563 48.211875 2.55078125 49.09375 C2.36902344 49.7228125 2.18726563 50.351875 2 51 C1.34 50.67 0.68 50.34 0 50 C0 33.5 0 17 0 0 Z " fill="#FC267D" transform="translate(164,43)"/>
<path d="M0 0 C7.88060737 0.67347027 15.38119149 2.79278174 23 4.8125 C24.39250909 5.17765742 25.7851693 5.54223902 27.17797852 5.90625 C29.23610931 6.44419372 31.29415327 6.9824391 33.35169983 7.52261353 C38.53831148 8.88396948 43.73288166 10.20936855 48.9375 11.5 C50.14277344 11.7990625 51.34804687 12.098125 52.58984375 12.40625 C53.38519531 12.6021875 54.18054688 12.798125 55 13 C55 13.33 55 13.66 55 14 C49.89957657 14.14547214 44.79907566 14.28771197 39.69848633 14.42724609 C37.97157494 14.4749093 36.24468565 14.52338182 34.51782227 14.57275391 C23.00643326 14.90117199 11.51638996 15.04966637 0 15 C0 10.05 0 5.1 0 0 Z " fill="#00F088" transform="translate(27,149)"/>
<path d="M0 0 C9.5 1.875 9.5 1.875 14 3 C14 18.51 14 34.02 14 50 C13.67 50 13.34 50 13 50 C12.74831055 48.98276855 12.49662109 47.96553711 12.23730469 46.91748047 C11.28555558 43.07375489 10.3304873 39.23085998 9.37451172 35.38818359 C8.96445331 33.73801108 8.55524615 32.08762675 8.14697266 30.43701172 C5.62181698 20.23091569 2.97637693 10.08478611 0 0 Z " fill="#3EC96C" transform="translate(150,40)"/>
<path d="M0 0 C0.99 0.495 0.99 0.495 2 1 C2.65772521 3.31606556 3.19512842 5.58466726 3.6875 7.9375 C5.72975997 17.18803726 8.20049786 26.30676546 10.71362305 35.43920898 C11.00922119 36.52016846 11.30481934 37.60112793 11.609375 38.71484375 C11.87717773 39.68542725 12.14498047 40.65601074 12.42089844 41.65600586 C13 44 13 44 13 46 C6.565 44.515 6.565 44.515 0 43 C0 28.81 0 14.62 0 0 Z " fill="#33CD69" transform="translate(28,106)"/>
<path d="M0 0 C0 4.95 0 9.9 0 15 C-5.61 15 -11.22 15 -17 15 C-16.34 11.04 -15.68 7.08 -15 3 C-2.52173913 -1.26086957 -2.52173913 -1.26086957 0 0 Z " fill="#00FD67" transform="translate(165,149)"/>
<path d="M0 0 C5.61 0 11.22 0 17 0 C17 4.95 17 9.9 17 15 C6.24528302 13.86792453 6.24528302 13.86792453 2 12 C0.14045357 7.71495822 0 4.70736048 0 0 Z " fill="#00FD67" transform="translate(148,28)"/>
<path d="M0 0 C-0.14107747 1.45880109 -0.28802415 2.91703551 -0.4375 4.375 C-0.51871094 5.18710938 -0.59992188 5.99921875 -0.68359375 6.8359375 C-1 9 -1 9 -2 11 C-14.21 11 -26.42 11 -39 11 C-36.735217 8.735217 -35.72915203 8.52694802 -32.66796875 7.8515625 C-31.79253418 7.65264404 -30.91709961 7.45372559 -30.01513672 7.2487793 C-29.0820166 7.04293213 -28.14889648 6.83708496 -27.1875 6.625 C-19.7994664 4.94189747 -12.59275 3.08788156 -5.3984375 0.69921875 C-3 0 -3 0 0 0 Z " fill="#34CD6A" transform="translate(150,152)"/>
<path d="M0 0 C1.51815699 0.00015911 3.0363194 0.00585313 4.55444336 0.01586914 C5.35208603 0.01728409 6.1497287 0.01869904 6.97154236 0.02015686 C9.52916146 0.02577223 12.08669429 0.03832727 14.64428711 0.05102539 C16.37410356 0.05603841 18.10392137 0.06060166 19.83374023 0.06469727 C24.08312264 0.07574664 28.33244023 0.09302153 32.58178711 0.11352539 C29.78229714 2.91301536 26.53591094 3.34726022 22.80053711 4.27758789 C22.03124878 4.4745224 21.26196045 4.67145691 20.46936035 4.87435913 C18.84278847 5.28937459 17.21535951 5.70104308 15.5871582 6.10961914 C13.08997414 6.73647026 10.59550138 7.37328671 8.10131836 8.01196289 C6.52204006 8.41359005 4.94261762 8.81465096 3.36303711 9.21508789 C2.61405151 9.4056778 1.86506592 9.5962677 1.09338379 9.79263306 C-4.18406002 11.11352539 -4.18406002 11.11352539 -6.41821289 11.11352539 C-6.11038793 9.46681127 -5.79682055 7.82116963 -5.48071289 6.17602539 C-5.30668945 5.25950195 -5.13266602 4.34297852 -4.95336914 3.39868164 C-4.10463365 -0.22548086 -3.93978403 0.13084777 0 0 Z " fill="#34CC69" transform="translate(47.418212890625,28.886474609375)"/>
<path d="M0 0 C5.61 0 11.22 0 17 0 C15.09084115 11.0969858 15.09084115 11.0969858 12.23046875 13.46484375 C7.94949254 15.11011376 4.72992253 15 0 15 C0 10.05 0 5.1 0 0 Z " fill="#00FD65" transform="translate(27,28)"/>
<path d="M0 0 C12.54 0 25.08 0 38 0 C38.66 3.63 39.32 7.26 40 11 C26.59348716 7.94079573 13.29300158 4.51754357 0 1 C0 0.67 0 0.34 0 0 Z " fill="#00F088" transform="translate(110,29)"/>
<path d="M0 0 C10.58730159 1.0952381 10.58730159 1.0952381 14 3 C15.97853162 6.87493552 17 10.65514447 17 15 C11.39 15 5.78 15 0 15 C0 10.05 0 5.1 0 0 Z " fill="#00FD64" transform="translate(27,149)"/>
<path d="M0 0 C2.75 2.5 2.75 2.5 5 5 C5 5.66 5 6.32 5 7 C-7.54 7 -20.08 7 -33 7 C-27.68357345 4.34178673 -22.20213456 2.88010174 -16.5 1.25 C-15.35917969 0.90839844 -14.21835938 0.56679688 -13.04296875 0.21484375 C-11.94597656 -0.09839844 -10.84898438 -0.41164063 -9.71875 -0.734375 C-8.71779297 -1.02538086 -7.71683594 -1.31638672 -6.68554688 -1.61621094 C-3.59532441 -2.05783182 -2.54449198 -1.73239093 0 0 Z " fill="#2DB1EB" transform="translate(118,22)"/>
<path d="M0 0 C12.87 0 25.74 0 39 0 C36.01113398 1.99257735 34.04181929 2.63499574 30.59765625 3.47265625 C29.54255859 3.73240234 28.48746094 3.99214844 27.40039062 4.25976562 C26.29888672 4.52466797 25.19738281 4.78957031 24.0625 5.0625 C22.96486328 5.33126953 21.86722656 5.60003906 20.73632812 5.87695312 C18.69474338 6.37645006 16.65256491 6.87353079 14.60961914 7.36743164 C12.99034439 7.75994178 11.37948824 8.19209088 9.7878418 8.68481445 C8.90286011 8.8408313 8.90286011 8.8408313 8 9 C5.859375 7.3828125 5.859375 7.3828125 3.75 5.125 C3.04359375 4.38507813 2.3371875 3.64515625 1.609375 2.8828125 C0 1 0 1 0 0 Z " fill="#27B2F1" transform="translate(68,163)"/>
<path d="M0 0 C2.36373236 0.5005776 4.53068254 1.2381088 6.79833984 2.07202148 C8.65052272 2.62043318 10.50468774 3.162198 12.36083984 3.69702148 C13.8410077 4.15211114 15.32055573 4.60924984 16.79833984 5.07202148 C16.46833984 5.73202148 16.13833984 6.39202148 15.79833984 7.07202148 C9.79405855 9.00694189 4.31938894 9.34299819 -1.95166016 9.26733398 C-2.85037842 9.26450409 -3.74909668 9.26167419 -4.67504883 9.25875854 C-7.51739381 9.24765273 -10.35941202 9.22256653 -13.20166016 9.19702148 C-15.14045766 9.18697926 -17.07926015 9.17785559 -19.01806641 9.16967773 C-23.74605498 9.14774494 -28.47380236 9.11328233 -33.20166016 9.07202148 C-33.20166016 8.74202148 -33.20166016 8.41202148 -33.20166016 8.07202148 C-32.51128662 8.07838623 -31.82091309 8.08475098 -31.10961914 8.09130859 C-27.95172429 8.10004596 -24.79671739 8.05523019 -21.63916016 8.00952148 C-20.553125 8.02047852 -19.46708984 8.03143555 -18.34814453 8.04272461 C-12.29606154 8.01916226 -12.29606154 8.01916226 -7.01391602 5.43823242 C-5.18270121 3.54607876 -5.18270121 3.54607876 -3.71679688 1.53369141 C-2.20166016 0.07202148 -2.20166016 0.07202148 0 0 Z " fill="#E2438E" transform="translate(77.20166015625,19.927978515625)"/>
<path d="M0 0 C0 10.89 0 21.78 0 33 C-0.33 33 -0.66 33 -1 33 C-1.26554687 31.92621094 -1.53109375 30.85242188 -1.8046875 29.74609375 C-2.16139421 28.3098799 -2.51816866 26.87368288 -2.875 25.4375 C-3.04902344 24.73302734 -3.22304688 24.02855469 -3.40234375 23.30273438 C-4.25108798 19.89203999 -5.1340576 16.50566022 -6.13671875 13.13671875 C-7.0652262 9.76300163 -7.27809062 8.23782958 -6 5 C-1.55555556 0 -1.55555556 0 0 0 Z " fill="#25B4ED" transform="translate(28,68)"/>
<path d="M0 0 C2.6268119 3.94021786 3.49573542 7.89113881 4.6875 12.4375 C5.04424805 13.72624023 5.04424805 13.72624023 5.40820312 15.04101562 C5.62798828 15.87181641 5.84777344 16.70261719 6.07421875 17.55859375 C6.27619873 18.31454834 6.47817871 19.07050293 6.6862793 19.84936523 C7.06301749 22.43200082 7.09577469 23.6097142 6 26 C4.02 27.65 2.04 29.3 0 31 C0 20.77 0 10.54 0 0 Z " fill="#2CAEF2" transform="translate(164,93)"/>
<path d="M0 0 C0.84433594 0.04833984 1.68867187 0.09667969 2.55859375 0.14648438 C3.43128906 0.20255859 4.30398437 0.25863281 5.203125 0.31640625 C6.53537109 0.3947168 6.53537109 0.3947168 7.89453125 0.47460938 C10.08111696 0.60392358 12.26720394 0.73887267 14.453125 0.87890625 C12.6155218 3.39998147 10.74812157 5.75806851 8.453125 7.87890625 C5.77734375 8.23046875 5.77734375 8.23046875 3.140625 7.50390625 C2.19960937 7.2615625 1.25859375 7.01921875 0.2890625 6.76953125 C-0.64679688 6.475625 -1.58265625 6.18171875 -2.546875 5.87890625 C-3.44148438 5.605625 -4.33609375 5.33234375 -5.2578125 5.05078125 C-7.37326818 4.37009835 -9.46322143 3.6506298 -11.546875 2.87890625 C-7.5289591 0.20029565 -4.76164188 -0.2895593 0 0 Z " fill="#EC3792" transform="translate(108.546875,164.12109375)"/>
<path d="M0 0 C4.2246738 2.1123369 5.37212491 2.6915956 7 7 C6.63549481 10.07612318 5.68933277 12.89028363 4.6875 15.8125 C4.43548828 16.60076172 4.18347656 17.38902344 3.92382812 18.20117188 C3.30100804 20.14014006 2.65293687 22.07096503 2 24 C1.34 23.67 0.68 23.34 0 23 C0 15.41 0 7.82 0 0 Z " fill="#EA3892" transform="translate(164,70)"/>
<path d="M0 0 C0.99 0.495 0.99 0.495 2 1 C2.78466298 3.73299596 3.45630672 6.41468437 4.0625 9.1875 C4.23587891 9.94353516 4.40925781 10.69957031 4.58789062 11.47851562 C5.52872171 15.63475411 6.3482057 19.78685543 7 24 C3.49001843 22.11965273 2.04998628 21.32930103 0 18 C-0.9573312 12.0783637 -0.39324355 5.95483087 0 0 Z " fill="#39C571" transform="translate(28,106)"/>
<path d="M0 0 C2 2 2 2 2.13525391 4.24658203 C2.08288574 5.15778809 2.03051758 6.06899414 1.9765625 7.0078125 C1.89921875 8.48701172 1.89921875 8.48701172 1.8203125 9.99609375 C1.75585938 11.02863281 1.69140625 12.06117187 1.625 13.125 C1.56828125 14.16527344 1.5115625 15.20554687 1.453125 16.27734375 C1.31138791 18.85223418 1.15995446 21.4261874 1 24 C-0.65 22.68 -2.3 21.36 -4 20 C-2.82144268 13.29225357 -1.52351686 6.63818061 0 0 Z " fill="#EA3894" transform="translate(25,97)"/>
<path d="M0 0 C-1.515625 1.984375 -1.515625 1.984375 -4 4 C-6.73682971 4.2911521 -9.03940039 4.38322418 -11.75 4.25 C-12.44738281 4.23195312 -13.14476563 4.21390625 -13.86328125 4.1953125 C-15.57611539 4.14838554 -17.28823824 4.07664605 -19 4 C-16.37412094 1.37412094 -14.22718377 1.14221649 -10.625 0.3125 C-9.48289062 0.04050781 -8.34078125 -0.23148438 -7.1640625 -0.51171875 C-4.27019132 -0.95830381 -2.70183009 -0.99155833 0 0 Z " fill="#38C571" transform="translate(130,159)"/>
<path d="M0 0 C1.87945312 0.08701172 1.87945312 0.08701172 3.796875 0.17578125 C5.06015625 0.22089844 6.3234375 0.26601563 7.625 0.3125 C8.58921875 0.37050781 9.5534375 0.42851562 10.546875 0.48828125 C8.14568973 2.88946652 6.49191458 3.24048986 3.234375 4.11328125 C1.81705078 4.50386719 1.81705078 4.50386719 0.37109375 4.90234375 C-2.33164402 5.46307773 -4.70344348 5.59846885 -7.453125 5.48828125 C-5.20937677 1.89035164 -4.29874807 0.60785465 0 0 Z " fill="#39C672" transform="translate(69.453125,28.51171875)"/>
<path d="M0 0 C7.26 0 14.52 0 22 0 C17.87720431 2.74853046 13.93338723 3.681031 9 4 C5.82361405 3.35070934 2.95325687 2.32682555 0 1 C0 0.67 0 0.34 0 0 Z " fill="#3FACCC" transform="translate(85,163)"/>
<path d="M0 0 C0.33 0 0.66 0 1 0 C1.6466598 8.01396246 2.16677223 15.95787245 2 24 C1.67 24 1.34 24 1 24 C-1.84588663 15.37053732 -2.17585206 8.82863714 0 0 Z " fill="#32ACE9" transform="translate(26,77)"/>
<path d="M0 0 C0.24927246 0.57524414 0.49854492 1.15048828 0.75537109 1.74316406 C2.17873923 4.32410072 3.81548786 6.04212237 5.9140625 8.109375 C6.67460937 8.86347656 7.43515625 9.61757812 8.21875 10.39453125 C9.0128125 11.17183594 9.806875 11.94914062 10.625 12.75 C11.42679688 13.54277344 12.22859375 14.33554688 13.0546875 15.15234375 C15.03202846 17.10614493 17.01388909 19.05512103 19 21 C14.58063987 21 13.09953251 18.55212864 10.04882812 15.55664062 C9.31083984 14.81607422 8.57285156 14.07550781 7.8125 13.3125 C7.06291016 12.59126953 6.31332031 11.87003906 5.54101562 11.12695312 C4.83267578 10.42119141 4.12433594 9.71542969 3.39453125 8.98828125 C2.74331299 8.34415283 2.09209473 7.70002441 1.42114258 7.03637695 C-0.3332432 4.52249072 -0.28295032 3.00174797 0 0 Z " fill="#8C008A" transform="translate(173,72)"/>
<path d="M0 0 C3.00664254 1.34283599 5.038402 2.81570805 7.3125 5.1875 C7.91320312 5.80367188 8.51390625 6.41984375 9.1328125 7.0546875 C11 9 11 9 12.8671875 10.9453125 C13.46789062 11.56148437 14.06859375 12.17765625 14.6875 12.8125 C15.49767578 13.65748047 15.49767578 13.65748047 16.32421875 14.51953125 C18.10678279 16.09433724 19.83600433 17.03350956 22 18 C20.27050781 18.73779297 20.27050781 18.73779297 18 19 C15.89355469 17.47705078 15.89355469 17.47705078 13.671875 15.1953125 C12.87265625 14.38449219 12.0734375 13.57367188 11.25 12.73828125 C10.0125 11.44470703 10.0125 11.44470703 8.75 10.125 C7.90953125 9.27035156 7.0690625 8.41570313 6.203125 7.53515625 C0 1.18098113 0 1.18098113 0 0 Z " fill="#6C0C72" transform="translate(97,0)"/>
<path d="M0 0 C0 0.33 0 0.66 0 1 C-4.62 1 -9.24 1 -14 1 C-8.13394232 -1.93302884 -6.19674743 -1.98763597 0 0 Z " fill="#449DE2" transform="translate(103,27)"/>
<path d="M0 0 C1.62463842 -0.05395478 3.24978541 -0.09277195 4.875 -0.125 C5.77992187 -0.14820313 6.68484375 -0.17140625 7.6171875 -0.1953125 C10 0 10 0 12 2 C7.31034294 3.11658501 4.46236469 2.80619523 0 1 C0 0.67 0 0.34 0 0 Z " fill="#4D9AE0" transform="translate(88,164)"/>
<path d="M0 0 C0.33 0.66 0.66 1.32 1 2 C0.34 2 -0.32 2 -1 2 C-0.67 2.99 -0.34 3.98 0 5 C-2.31 4.34 -4.62 3.68 -7 3 C-4.38058783 1.25372522 -2.96175123 0.61277612 0 0 Z " fill="#E53A9A" transform="translate(104,164)"/>
<path d="M0 0 C5.28 0 10.56 0 16 0 C15.67 0.66 15.34 1.32 15 2 C10.05 1.67 5.1 1.34 0 1 C0 0.67 0 0.34 0 0 Z " fill="#00E170" transform="translate(27,165)"/>
<path d="M0 0 C0.33 0 0.66 0 1 0 C1 4.95 1 9.9 1 15 C0.01 14.67 -0.98 14.34 -2 14 C-1.34 14 -0.68 14 0 14 C0 9.38 0 4.76 0 0 Z " fill="#00E170" transform="translate(25,28)"/>
<path d="M0 0 C0.33 0.66 0.66 1.32 1 2 C-4.28 2 -9.56 2 -15 2 C-15 1.67 -15 1.34 -15 1 C-10.05 0.67 -5.1 0.34 0 0 Z " fill="#1ED282" transform="translate(42,25)"/>
<path d="M0 0 C0.99 0.33 1.98 0.66 3 1 C2.34 1 1.68 1 1 1 C1 5.29 1 9.58 1 14 C0.67 14 0.34 14 0 14 C0 9.38 0 4.76 0 0 Z " fill="#001F10" transform="translate(166,149)"/>
<path d="M0 0 C0.33 0 0.66 0 1 0 C1 4.29 1 8.58 1 13 C1.66 13.33 2.32 13.66 3 14 C2.01 14 1.02 14 0 14 C0 9.38 0 4.76 0 0 Z " fill="#2F002A" transform="translate(166,29)"/>
<path d="M0 0 C4 1 4 1 4 1 Z " fill="#007F40" transform="translate(57,178)"/>
<path d="M0 0 C1 4 1 4 1 4 Z " fill="#FF00E9" transform="translate(146,173)"/>
<path d="M0 0 C1 4 1 4 1 4 Z " fill="#007F40" transform="translate(45,174)"/>
<path d="M0 0 C1 4 1 4 1 4 Z " fill="#FF00E9" transform="translate(147,169)"/>
<path d="M0 0 C4 1 4 1 4 1 Z " fill="#007F40" transform="translate(169,148)"/>
<path d="M0 0 C4 1 4 1 4 1 Z " fill="#FF00E9" transform="translate(15,147)"/>
<path d="M0 0 C1 4 1 4 1 4 Z " fill="#FF00E9" transform="translate(11,141)"/>
<path d="M0 0 C1 4 1 4 1 4 Z " fill="#FF00E9" transform="translate(12,137)"/>
<path d="M0 0 C1 4 1 4 1 4 Z " fill="#FF00E9" transform="translate(13,133)"/>
<path d="M0 0 C1 4 1 4 1 4 Z " fill="#007F40" transform="translate(176,127)"/>
<path d="M0 0 C1 4 1 4 1 4 Z " fill="#FF00E9" transform="translate(16,122)"/>
<path d="M0 0 C1 4 1 4 1 4 Z " fill="#007F40" transform="translate(16,66)"/>
<path d="M0 0 C1 4 1 4 1 4 Z " fill="#FF00E9" transform="translate(176,61)"/>
<path d="M0 0 C1 4 1 4 1 4 Z " fill="#007F40" transform="translate(12,51)"/>
<path d="M0 0 C1 4 1 4 1 4 Z " fill="#007F40" transform="translate(11,47)"/>
<path d="M0 0 C4 1 4 1 4 1 Z " fill="#FF00E9" transform="translate(169,43)"/>
<path d="M0 0 C4 1 4 1 4 1 Z " fill="#FF00D4" transform="translate(72,17)"/>
<path d="M0 0 C1 4 1 4 1 4 Z " fill="#007F40" transform="translate(146,15)"/>
<path d="M0 0 C4 1 4 1 4 1 Z " fill="#007F40" transform="translate(127,14)"/>
<path d="M0 0 C4 1 4 1 4 1 Z " fill="#FF00E9" transform="translate(57,13)"/>
<path d="M0 0 C4 1 4 1 4 1 Z " fill="#00BF60" transform="translate(138,11)"/>
<path d="M0 0 C3 1 3 1 3 1 Z " fill="#00AA55" transform="translate(50,180)"/>
<path d="M0 0 C3 1 3 1 3 1 Z " fill="#FF00E2" transform="translate(135,179)"/>
<path d="M0 0 C3 1 3 1 3 1 Z " fill="#00AA55" transform="translate(54,179)"/>
<path d="M0 0 C3 1 3 1 3 1 Z " fill="#FF00E2" transform="translate(131,178)"/>
<path d="M0 0 C3 1 3 1 3 1 Z " fill="#FF00E2" transform="translate(124,176)"/>
<path d="M0 0 C3 1 3 1 3 1 Z " fill="#00AA55" transform="translate(65,176)"/>
<path d="M0 0 C3 1 3 1 3 1 Z " fill="#FF00C6" transform="translate(116,174)"/>
<path d="M0 0 C3 1 3 1 3 1 Z " fill="#00AA55" transform="translate(72,174)"/>
<path d="" fill="#00AA55" transform="translate(0,0)"/>
<path d="" fill="#00AA55" transform="translate(0,0)"/>
<path d="" fill="#00552A" transform="translate(0,0)"/>
<path d="" fill="#00FF80" transform="translate(0,0)"/>
<path d="" fill="#00AA55" transform="translate(0,0)"/>
<path d="" fill="#00AA55" transform="translate(0,0)"/>
<path d="" fill="#FF00E2" transform="translate(0,0)"/>
<path d="" fill="#FF00E2" transform="translate(0,0)"/>
<path d="" fill="#00AA55" transform="translate(0,0)"/>
<path d="" fill="#00AA55" transform="translate(0,0)"/>
<path d="" fill="#FF00E2" transform="translate(0,0)"/>
<path d="" fill="#00AA55" transform="translate(0,0)"/>
<path d="" fill="#FF00C6" transform="translate(0,0)"/>
<path d="" fill="#FF00E2" transform="translate(0,0)"/>
<path d="" fill="#00AA55" transform="translate(0,0)"/>
<path d="" fill="#00AA55" transform="translate(0,0)"/>
<path d="" fill="#FF00E2" transform="translate(0,0)"/>
<path d="" fill="#00AA55" transform="translate(0,0)"/>
<path d="" fill="#FF00E2" transform="translate(0,0)"/>
<path d="" fill="#FF00E2" transform="translate(0,0)"/>
<path d="" fill="#FF00FF" transform="translate(0,0)"/>
<path d="M0 0 C3 1 3 1 3 1 Z " fill="#FF00E2" transform="translate(173,44)"/>
<path d="M0 0 C3 1 3 1 3 1 Z " fill="#00AA55" transform="translate(19,43)"/>
<path d="" fill="#FF00E2" transform="translate(0,0)"/>
<path d="" fill="#00AA55" transform="translate(0,0)"/>
<path d="" fill="#FF00C6" transform="translate(0,0)"/>
<path d="M0 0 C3 1 3 1 3 1 Z " fill="#00AA55" transform="translate(120,16)"/>
<path d="M0 0 C3 1 3 1 3 1 Z " fill="#FF00E2" transform="translate(69,16)"/>
<path d="M0 0 C3 1 3 1 3 1 Z " fill="#00FF80" transform="translate(124,15)"/>
<path d="M0 0 C3 1 3 1 3 1 Z " fill="#FF00E2" transform="translate(65,15)"/>
<path d="" fill="#FF00E2" transform="translate(0,0)"/>
<path d="M0 0 C3 1 3 1 3 1 Z " fill="#FF00E2" transform="translate(61,14)"/>
<path d="M0 0 C3 1 3 1 3 1 Z " fill="#00AA55" transform="translate(131,13)"/>
<path d="M0 0 C3 1 3 1 3 1 Z " fill="#00AA55" transform="translate(135,12)"/>
<path d="M0 0 C3 1 3 1 3 1 Z " fill="#FF00E2" transform="translate(54,12)"/>
<path d="M0 0 C3 1 3 1 3 1 Z " fill="#FF00C6" transform="translate(50,11)"/>
<path d="M0 0 C2 1 2 1 2 1 Z " fill="#000000" transform="translate(48,181)"/>
<path d="" fill="#FF00D4" transform="translate(0,0)"/>
<path d="M0 0 C2 1 2 1 2 1 Z " fill="#007F40" transform="translate(177,146)"/>
<path d="M0 0 C2 1 2 1 2 1 Z " fill="#FF00FF" transform="translate(13,146)"/>
<path d="" fill="#00FF80" transform="translate(0,0)"/>
<path d="" fill="#FF00D4" transform="translate(0,0)"/>
<path d="M0 0 C2 1 2 1 2 1 Z " fill="#FF00D4" transform="translate(177,45)"/>
<path d="M0 0 C2 1 2 1 2 1 Z " fill="#00FF80" transform="translate(13,45)"/>
<path d="" fill="#00FF80" transform="translate(0,0)"/>
<path d="M0 0 C2 1 2 1 2 1 Z " fill="#FF00FF" transform="translate(48,10)"/>
<path d="" fill="#FF00FF" transform="translate(0,0)"/>
<path d="" fill="#FF00FF" transform="translate(0,0)"/>
<path d="" fill="#FF00FF" transform="translate(0,0)"/>
<path d="" fill="#FF00FF" transform="translate(0,0)"/>
<path d="" fill="#FF00FF" transform="translate(0,0)"/>
<path d="" fill="#FF00FF" transform="translate(0,0)"/>
<path d="" fill="#FF00FF" transform="translate(0,0)"/>
<path d="" fill="#FF00FF" transform="translate(0,0)"/>
<path d="" fill="#FF00FF" transform="translate(0,0)"/>
<path d="" fill="#FF00FF" transform="translate(0,0)"/>
<path d="" fill="#FF00FF" transform="translate(0,0)"/>
<path d="" fill="#FF00FF" transform="translate(0,0)"/>
<path d="" fill="#FF00FF" transform="translate(0,0)"/>
<path d="" fill="#FF00FF" transform="translate(0,0)"/>
<path d="" fill="#FF00FF" transform="translate(0,0)"/>
<path d="" fill="#FF00FF" transform="translate(0,0)"/>
<path d="" fill="#FF00FF" transform="translate(0,0)"/>
<path d="" fill="#FF00FF" transform="translate(0,0)"/>
<path d="" fill="#FF00FF" transform="translate(0,0)"/>
<path d="" fill="#FF00FF" transform="translate(0,0)"/>
<path d="" fill="#FF00FF" transform="translate(0,0)"/>
<path d="" fill="#FF00FF" transform="translate(0,0)"/>
<path d="" fill="#FF00FF" transform="translate(0,0)"/>
<path d="" fill="#FF00FF" transform="translate(0,0)"/>
<path d="" fill="#FF00FF" transform="translate(0,0)"/>
<path d="" fill="#FF00FF" transform="translate(0,0)"/>
<path d="" fill="#FF00FF" transform="translate(0,0)"/>
<path d="" fill="#FF00FF" transform="translate(0,0)"/>
<path d="" fill="#FF00FF" transform="translate(0,0)"/>
<path d="" fill="#000000" transform="translate(0,0)"/>
<path d="" fill="#FF00FF" transform="translate(0,0)"/>
<path d="" fill="#FF00FF" transform="translate(0,0)"/>
<path d="" fill="#FF00FF" transform="translate(0,0)"/>
<path d="" fill="#FF00FF" transform="translate(0,0)"/>
<path d="" fill="#FF00FF" transform="translate(0,0)"/>
<path d="" fill="#FF00FF" transform="translate(0,0)"/>
<path d="" fill="#FF00FF" transform="translate(0,0)"/>
<path d="" fill="#000000" transform="translate(0,0)"/>
<path d="" fill="#000000" transform="translate(0,0)"/>
<path d="" fill="#FF00AA" transform="translate(0,0)"/>
<path d="" fill="#FF00FF" transform="translate(0,0)"/>
<path d="" fill="#FF00FF" transform="translate(0,0)"/>
<path d="" fill="#FF00FF" transform="translate(0,0)"/>
<path d="" fill="#FF00FF" transform="translate(0,0)"/>
<path d="" fill="#FF00FF" transform="translate(0,0)"/>
<path d="" fill="#FF00FF" transform="translate(0,0)"/>
<path d="" fill="#FF00FF" transform="translate(0,0)"/>
<path d="" fill="#FF00FF" transform="translate(0,0)"/>
<path d="" fill="#FF00FF" transform="translate(0,0)"/>
<path d="" fill="#FF00FF" transform="translate(0,0)"/>
<path d="" fill="#FF00FF" transform="translate(0,0)"/>
<path d="" fill="#FF00FF" transform="translate(0,0)"/>
<path d="" fill="#FF00FF" transform="translate(0,0)"/>
<path d="" fill="#FF00FF" transform="translate(0,0)"/>
<path d="" fill="#FF00FF" transform="translate(0,0)"/>
<path d="" fill="#FF00FF" transform="translate(0,0)"/>
<path d="" fill="#FF00FF" transform="translate(0,0)"/>
<path d="" fill="#FF00FF" transform="translate(0,0)"/>
<path d="" fill="#FF00FF" transform="translate(0,0)"/>
<path d="" fill="#FF00FF" transform="translate(0,0)"/>
<path d="" fill="#FF00FF" transform="translate(0,0)"/>
<path d="" fill="#FF00FF" transform="translate(0,0)"/>
<path d="" fill="#FF00FF" transform="translate(0,0)"/>
<path d="" fill="#FF00FF" transform="translate(0,0)"/>
<path d="" fill="#FF00FF" transform="translate(0,0)"/>
<path d="" fill="#FF00FF" transform="translate(0,0)"/>
<path d="" fill="#FF00FF" transform="translate(0,0)"/>
<path d="" fill="#FF00FF" transform="translate(0,0)"/>
<path d="" fill="#FF00FF" transform="translate(0,0)"/>
<path d="" fill="#FF00FF" transform="translate(0,0)"/>
<path d="" fill="#FF00FF" transform="translate(0,0)"/>
<path d="" fill="#FF00FF" transform="translate(0,0)"/>
<path d="" fill="#FF00FF" transform="translate(0,0)"/>
<path d="" fill="#FF00FF" transform="translate(0,0)"/>
<path d="" fill="#FF00FF" transform="translate(0,0)"/>
<path d="" fill="#000000" transform="translate(0,0)"/>
<path d="" fill="#FF00AA" transform="translate(0,0)"/>
<path d="" fill="#FF00FF" transform="translate(0,0)"/>
<path d="" fill="#000000" transform="translate(0,0)"/>
<path d="" fill="#FF00AA" transform="translate(0,0)"/>
<path d="" fill="#FF00AA" transform="translate(0,0)"/>
<path d="" fill="#FF00AA" transform="translate(0,0)"/>
<path d="" fill="#FF00AA" transform="translate(0,0)"/>
<path d="" fill="#FF00AA" transform="translate(0,0)"/>
<path d="" fill="#FF00AA" transform="translate(0,0)"/>
<path d="" fill="#FF00AA" transform="translate(0,0)"/>
<path d="" fill="#FF00AA" transform="translate(0,0)"/>
<path d="" fill="#FF00AA" transform="translate(0,0)"/>
<path d="" fill="#FF00AA" transform="translate(0,0)"/>
<path d="" fill="#FF00AA" transform="translate(0,0)"/>
<path d="" fill="#FF00AA" transform="translate(0,0)"/>
<path d="" fill="#FF00AA" transform="translate(0,0)"/>
<path d="" fill="#FF00AA" transform="translate(0,0)"/>
<path d="" fill="#FF00AA" transform="translate(0,0)"/>
<path d="" fill="#FF00AA" transform="translate(0,0)"/>
<path d="" fill="#FF00AA" transform="translate(0,0)"/>
<path d="" fill="#FF00AA" transform="translate(0,0)"/>
<path d="" fill="#00FF80" transform="translate(0,0)"/>
<path d="" fill="#FF00FF" transform="translate(0,0)"/>
<path d="" fill="#000000" transform="translate(0,0)"/>
<path d="" fill="#000000" transform="translate(0,0)"/>
<path d="" fill="#FF00AA" transform="translate(0,0)"/>
<path d="" fill="#FF00AA" transform="translate(0,0)"/>
<path d="" fill="#FF00AA" transform="translate(0,0)"/>
<path d="" fill="#FF00AA" transform="translate(0,0)"/>
<path d="" fill="#FF00FF" transform="translate(0,0)"/>
<path d="" fill="#FF00AA" transform="translate(0,0)"/>
<path d="" fill="#FF00AA" transform="translate(0,0)"/>
<path d="" fill="#000000" transform="translate(0,0)"/>
<path d="" fill="#FF00AA" transform="translate(0,0)"/>
<path d="" fill="#FF00AA" transform="translate(0,0)"/>
<path d="" fill="#FF00AA" transform="translate(0,0)"/>
<path d="" fill="#FF00AA" transform="translate(0,0)"/>
<path d="" fill="#FF00AA" transform="translate(0,0)"/>
<path d="" fill="#FF00AA" transform="translate(0,0)"/>
<path d="" fill="#FF00AA" transform="translate(0,0)"/>
<path d="" fill="#FF00AA" transform="translate(0,0)"/>
<path d="" fill="#FF00AA" transform="translate(0,0)"/>
<path d="" fill="#FF00AA" transform="translate(0,0)"/>
<path d="" fill="#FF00AA" transform="translate(0,0)"/>
</svg>
