<?xml version="1.0" encoding="UTF-8"?>
<svg version="1.1" xmlns="http://www.w3.org/2000/svg" width="65" height="100" viewBox="0 0 63 52">
<path d="M0 0 C0.86882813 -0.00515625 1.73765625 -0.0103125 2.6328125 -0.015625 C4.875 0.25 4.875 0.25 6.875 2.25 C9.77290363 2.30836268 9.77290363 2.30836268 13.0625 1.9375 C14.23941406 1.82921875 15.41632812 1.7209375 16.62890625 1.609375 C18.92576006 1.35509034 21.21644191 1.04184522 23.5 0.6875 C28.27381358 0.06867231 33.06767315 -0.03278393 37.875 0.25 C39.68615956 2.06115956 39.25699448 4.86278227 39.4375 7.3125 C39.52128906 8.41722656 39.60507812 9.52195312 39.69140625 10.66015625 C39.75199219 11.51480469 39.81257813 12.36945312 39.875 13.25 C42.515 12.92 45.155 12.59 47.875 12.25 C48.84105451 15.95655337 48.86902641 18.26792077 47.66015625 21.89453125 C47.24926758 23.15620117 47.24926758 23.15620117 46.83007812 24.44335938 C46.53552734 25.30767578 46.24097656 26.17199219 45.9375 27.0625 C45.64681641 27.94615234 45.35613281 28.82980469 45.05664062 29.74023438 C44.33992164 31.91389032 43.61247903 34.08331776 42.875 36.25 C3.60804771 43.45935477 3.60804771 43.45935477 -3.1875 39.4375 C-5.96795345 34.86320562 -6.44292894 30.50128492 -7.125 25.25 C-7.40150391 23.63931641 -7.40150391 23.63931641 -7.68359375 21.99609375 C-8.82161614 15.34847328 -9.39892055 8.99148906 -9.125 2.25 C-5.97530499 0.40413223 -3.63615326 -0.02170838 0 0 Z " fill="#3A93FA" transform="translate(12.125,3.75)"/>
<path d="M0 0 C1.37478516 0.01740234 1.37478516 0.01740234 2.77734375 0.03515625 C3.69644531 0.04417969 4.61554687 0.05320312 5.5625 0.0625 C6.27277344 0.07410156 6.98304687 0.08570313 7.71484375 0.09765625 C8.04484375 1.08765625 8.37484375 2.07765625 8.71484375 3.09765625 C9.59052002 2.96133789 9.59052002 2.96133789 10.48388672 2.82226562 C13.18474623 2.40633859 15.88722039 2.00195705 18.58984375 1.59765625 C19.50765625 1.45457031 20.42546875 1.31148438 21.37109375 1.1640625 C27.53323759 0.25275954 33.48842613 -0.08512524 39.71484375 0.09765625 C40.73336077 4.54843609 41.25875102 8.54679906 40.71484375 13.09765625 C38.03056921 17.25127256 34.91761215 20.47171127 30.71484375 23.09765625 C28.3828125 22.85546875 28.3828125 22.85546875 26.71484375 22.09765625 C26.38484375 20.11765625 26.05484375 18.13765625 25.71484375 16.09765625 C13.92821854 17.47298596 13.92821854 17.47298596 4.71484375 24.09765625 C3.44246104 26.75091942 2.57874122 29.26599232 1.71484375 32.09765625 C1.05484375 32.09765625 0.39484375 32.09765625 -0.28515625 32.09765625 C-0.79238774 28.24440568 -1.28963824 24.38992922 -1.78515625 20.53515625 C-1.92824219 19.44912109 -2.07132812 18.36308594 -2.21875 17.24414062 C-3.58887702 6.51147897 -3.58887702 6.51147897 -3.28515625 1.09765625 C-2.28515625 0.09765625 -2.28515625 0.09765625 0 0 Z " fill="#B2D7FE" transform="translate(8.28515625,5.90234375)"/>
<path d="M0 0 C0.86882813 -0.00515625 1.73765625 -0.0103125 2.6328125 -0.015625 C4.875 0.25 4.875 0.25 6.875 2.25 C9.77290363 2.30836268 9.77290363 2.30836268 13.0625 1.9375 C14.23941406 1.82921875 15.41632812 1.7209375 16.62890625 1.609375 C18.92576006 1.35509034 21.21644191 1.04184522 23.5 0.6875 C28.27381358 0.06867231 33.06767315 -0.03278393 37.875 0.25 C39.68615956 2.06115956 39.25699448 4.86278227 39.4375 7.3125 C39.52128906 8.41722656 39.60507812 9.52195312 39.69140625 10.66015625 C39.75199219 11.51480469 39.81257813 12.36945312 39.875 13.25 C42.515 12.92 45.155 12.59 47.875 12.25 C48.84105451 15.95655337 48.86902641 18.26792077 47.66015625 21.89453125 C47.24926758 23.15620117 47.24926758 23.15620117 46.83007812 24.44335938 C46.53552734 25.30767578 46.24097656 26.17199219 45.9375 27.0625 C45.64681641 27.94615234 45.35613281 28.82980469 45.05664062 29.74023438 C44.33992164 31.91389032 43.61247903 34.08331776 42.875 36.25 C3.60804771 43.45935477 3.60804771 43.45935477 -3.1875 39.4375 C-5.96795345 34.86320562 -6.44292894 30.50128492 -7.125 25.25 C-7.40150391 23.63931641 -7.40150391 23.63931641 -7.68359375 21.99609375 C-8.82161614 15.34847328 -9.39892055 8.99148906 -9.125 2.25 C-5.97530499 0.40413223 -3.63615326 -0.02170838 0 0 Z M26.359375 2.125 C24.48378906 2.39570312 24.48378906 2.39570312 22.5703125 2.671875 C20.61738281 2.95804687 20.61738281 2.95804687 18.625 3.25 C17.29430824 3.44296649 15.96357943 3.63567764 14.6328125 3.828125 C11.37983481 4.29957104 8.12725921 4.77362701 4.875 5.25 C4.545 4.26 4.215 3.27 3.875 2.25 C2.22925434 2.22311849 0.58338587 2.20365877 -1.0625 2.1875 C-2.43728516 2.17009766 -2.43728516 2.17009766 -3.83984375 2.15234375 C-6.09093327 1.99050951 -6.09093327 1.99050951 -7.125 3.25 C-7.04472746 6.89931323 -6.6593756 10.52656447 -6.31640625 14.15966797 C-6.18255472 15.62144957 -6.05834042 17.08413121 -5.94140625 18.54736328 C-5.74930501 20.95009889 -5.53302116 23.34972139 -5.3125 25.75 C-5.22585083 26.89746704 -5.22585083 26.89746704 -5.13745117 28.06811523 C-4.78305557 31.6416371 -4.22555648 34.05637264 -2.55078125 37.28125 C0.87698404 40.06320444 3.70683032 39.63099471 7.875 39.25 C8.72046387 39.21986816 9.56592773 39.18973633 10.43701172 39.15869141 C22.64196474 38.88706002 22.64196474 38.88706002 33.34375 33.82421875 C39.28436212 26.4266527 39.57684499 19.74617727 38.78100586 10.61132812 C38.40032564 7.31005834 37.92969285 4.41407854 36.875 1.25 C33.22951678 1.25 29.95884606 1.60144057 26.359375 2.125 Z " fill="#082D68" transform="translate(12.125,3.75)"/>
<path d="M0 0 C0.86882813 -0.00515625 1.73765625 -0.0103125 2.6328125 -0.015625 C4.875 0.25 4.875 0.25 6.875 2.25 C9.77290363 2.30836268 9.77290363 2.30836268 13.0625 1.9375 C14.8259375 1.77507813 14.8259375 1.77507813 16.625 1.609375 C18.94369499 1.35298084 21.25634926 1.03928571 23.5625 0.6875 C28.01002726 0.10009074 32.3960546 0.16889234 36.875 0.25 C33.9489236 1.8759241 31.44448593 2.63355943 28.13671875 3.1015625 C27.23373047 3.23046875 26.33074219 3.359375 25.40039062 3.4921875 C24.46388672 3.61851563 23.52738281 3.74484375 22.5625 3.875 C21.63759766 4.0090625 20.71269531 4.143125 19.75976562 4.28125 C14.74681094 4.97957205 9.93519258 5.40355067 4.875 5.25 C4.545 4.59 4.215 3.93 3.875 3.25 C0.575 3.25 -2.725 3.25 -6.125 3.25 C-5.83382531 7.58697036 -5.49368007 11.91901098 -5.125 16.25 C-5.06054688 17.01489746 -4.99609375 17.77979492 -4.9296875 18.56787109 C-4.71840303 20.98443716 -4.4866672 23.39829857 -4.25 25.8125 C-4.18377441 26.58577637 -4.11754883 27.35905273 -4.04931641 28.15576172 C-3.62438927 32.28090728 -3.29606098 35.40117154 -0.125 38.25 C1.9066566 38.93850829 1.9066566 38.93850829 4.0625 39 C5.320625 39.0825 6.57875 39.165 7.875 39.25 C7.875 39.58 7.875 39.91 7.875 40.25 C-0 40.85576923 -0 40.85576923 -3.5625 38.9375 C-6.06148373 34.63924798 -6.4442694 30.12451736 -7.125 25.25 C-7.310625 24.17492187 -7.49625 23.09984375 -7.6875 21.9921875 C-8.8188871 15.34528831 -9.39886011 8.99000163 -9.125 2.25 C-5.97530499 0.40413223 -3.63615326 -0.02170838 0 0 Z " fill="#0B61C3" transform="translate(12.125,3.75)"/>
<path d="M0 0 C0.33 0 0.66 0 1 0 C2.01851702 4.45077984 2.54390727 8.44914281 2 13 C-0.68427454 17.15361631 -3.7972316 20.37405502 -8 23 C-10.33203125 22.7578125 -10.33203125 22.7578125 -12 22 C-12.33 20.02 -12.66 18.04 -13 16 C-16.96 16.495 -16.96 16.495 -21 17 C-18.16697148 15.43894347 -15.74655222 14.68966421 -12.5625 14.1875 C-8.03452973 13.21350311 -5.81912358 11.81410837 -3 8 C-1.7896542 5.35880006 -0.89394429 2.77593228 0 0 Z " fill="#6FB7FF" transform="translate(47,6)"/>
<path d="M0 0 C2.375 -0.125 2.375 -0.125 5 0 C5.66 0.66 6.32 1.32 7 2 C9.89790363 2.05836268 9.89790363 2.05836268 13.1875 1.6875 C14.9509375 1.52507813 14.9509375 1.52507813 16.75 1.359375 C19.06869499 1.10298084 21.38134926 0.78928571 23.6875 0.4375 C28.13502726 -0.14990926 32.5210546 -0.08110766 37 0 C34.0739236 1.6259241 31.56948593 2.38355943 28.26171875 2.8515625 C27.35873047 2.98046875 26.45574219 3.109375 25.52539062 3.2421875 C24.58888672 3.36851563 23.65238281 3.49484375 22.6875 3.625 C21.76259766 3.7590625 20.83769531 3.893125 19.88476562 4.03125 C14.87181094 4.72957205 10.06019258 5.15355067 5 5 C4.67 3.68 4.34 2.36 4 1 C2.68 0.67 1.36 0.34 0 0 Z " fill="#0456B5" transform="translate(12,4)"/>
<path d="M0 0 C-0.63321621 5.82558915 -1.81468106 11.54193068 -4 17 C-4.66 17.33 -5.32 17.66 -6 18 C-5.34 14.04 -4.68 10.08 -4 6 C-4.99 6 -5.98 6 -7 6 C-7.33 4.35 -7.66 2.7 -8 1 C-5.07175348 0.02391783 -3.04386724 -0.08226668 0 0 Z " fill="#2475D0" transform="translate(59,18)"/>
<path d="M0 0 C1.37478516 0.01740234 1.37478516 0.01740234 2.77734375 0.03515625 C3.69644531 0.04417969 4.61554687 0.05320312 5.5625 0.0625 C6.27277344 0.07410156 6.98304687 0.08570313 7.71484375 0.09765625 C8.04484375 1.08765625 8.37484375 2.07765625 8.71484375 3.09765625 C9.37484375 3.42765625 10.03484375 3.75765625 10.71484375 4.09765625 C6.30569592 5.19994321 2.23101974 5.17420161 -2.28515625 5.09765625 C-2.61515625 6.08765625 -2.94515625 7.07765625 -3.28515625 8.09765625 C-3.32757348 5.7647085 -3.32608562 3.43063058 -3.28515625 1.09765625 C-2.28515625 0.09765625 -2.28515625 0.09765625 0 0 Z " fill="#8EC3FC" transform="translate(8.28515625,5.90234375)"/>
<path d="M0 0 C0.82693359 0.00451172 1.65386719 0.00902344 2.50585938 0.01367188 C4.52477146 0.02534189 6.54364574 0.04327282 8.5625 0.0625 C8.5625 0.3925 8.5625 0.7225 8.5625 1.0625 C5.12679127 1.57533306 1.68872082 2.07030398 -1.75 2.5625 C-2.70712891 2.70558594 -3.66425781 2.84867188 -4.65039062 2.99609375 C-11.29033947 3.93507641 -17.73479513 4.23964233 -24.4375 4.0625 C-24.4375 3.7325 -24.4375 3.4025 -24.4375 3.0625 C-21.7975 3.0625 -19.1575 3.0625 -16.4375 3.0625 C-16.4375 2.4025 -16.4375 1.7425 -16.4375 1.0625 C-10.91041389 0.12029874 -5.59991648 -0.05866149 0 0 Z " fill="#021336" transform="translate(36.4375,40.9375)"/>
<path d="M0 0 C0.33 0 0.66 0 1 0 C1 1.65 1 3.3 1 5 C1.66 5 2.32 5 3 5 C3.03738281 5.67546875 3.07476562 6.3509375 3.11328125 7.046875 C3.17902344 7.93890625 3.24476562 8.8309375 3.3125 9.75 C3.37050781 10.63171875 3.42851562 11.5134375 3.48828125 12.421875 C4.08146602 15.4104395 4.85020759 16.85020759 7 19 C9.0316566 19.68850829 9.0316566 19.68850829 11.1875 19.75 C12.445625 19.8325 13.70375 19.915 15 20 C15 20.33 15 20.66 15 21 C7.125 21.60576923 7.125 21.60576923 3.5625 19.6875 C0.20323587 13.90956569 -0.35623841 6.59041064 0 0 Z " fill="#073689" transform="translate(5,23)"/>
<path d="M0 0 C2 2 2 2 2.125 5.125 C2.08375 6.07375 2.0425 7.0225 2 8 C-0.31 8 -2.62 8 -5 8 C-3.62845496 5.04590299 -2.01136276 2.55991624 0 0 Z " fill="#80BDFA" transform="translate(50,30)"/>
<path d="M0 0 C0.99 0.33 1.98 0.66 3 1 C2.34 1.70125 1.68 2.4025 1 3.125 C-1.33402777 6.48016492 -1.34713924 8.00789873 -1 12 C-1 12.99 -1 13.98 -1 15 C-2.5 13.9375 -2.5 13.9375 -4 12 C-4.56045628 7.67648012 -4.4786058 5.70295227 -2 2.0625 C-1.34 1.381875 -0.68 0.70125 0 0 Z " fill="#1E6CF6" transform="translate(15,27)"/>
<path d="M0 0 C0.33 0 0.66 0 1 0 C1.268125 0.969375 1.53625 1.93875 1.8125 2.9375 C2.204375 3.948125 2.59625 4.95875 3 6 C6.14930893 7.04976964 8.38814456 7.10131595 11.6875 7.0625 C12.68136719 7.05347656 13.67523438 7.04445313 14.69921875 7.03515625 C15.45847656 7.02355469 16.21773437 7.01195312 17 7 C17 7.33 17 7.66 17 8 C11.92673288 8.84554452 7.136899 9.5136899 2 9 C-0.0625 6.75 -0.0625 6.75 -1 4 C-0.6875 1.6875 -0.6875 1.6875 0 0 Z " fill="#377EF1" transform="translate(10,34)"/>
<path d="M0 0 C0.33 0.66 0.66 1.32 1 2 C0 4 0 4 -1.78515625 4.6328125 C-6.9795261 5.75543789 -11.68658027 6.19321526 -17 6 C-17 5.67 -17 5.34 -17 5 C-15.35 5 -13.7 5 -12 5 C-11.67 4.01 -11.34 3.02 -11 2 C-10.67 2.66 -10.34 3.32 -10 4 C-5.545 3.505 -5.545 3.505 -1 3 C-0.67 2.01 -0.34 1.02 0 0 Z " fill="#033085" transform="translate(54,35)"/>
<path d="M0 0 C0 1.32 0 2.64 0 4 C-1.65 4 -3.3 4 -5 4 C-5 3.34 -5 2.68 -5 2 C-5.99 1.67 -6.98 1.34 -8 1 C-5.07175348 0.02391783 -3.04386724 -0.08226668 0 0 Z " fill="#2984E6" transform="translate(59,18)"/>
<path d="M0 0 C3.37996604 3.37996604 4.125 6.6387273 4.125 11.3125 C4.08375 12.529375 4.0425 13.74625 4 15 C3.67 15 3.34 15 3 15 C2.49564306 13.0636296 1.99666126 11.12585854 1.5 9.1875 C1.2215625 8.10855469 0.943125 7.02960937 0.65625 5.91796875 C0 3 0 3 0 0 Z " fill="#0D4EA4" transform="translate(3,13)"/>
<path d="M0 0 C0.99 0 1.98 0 3 0 C2.67 2.97 2.34 5.94 2 9 C1.67 9 1.34 9 1 9 C0.67 6.03 0.34 3.06 0 0 Z " fill="#1F62A4" transform="translate(52,24)"/>
</svg>
